<svg id="Layer_1" data-name="Layer 1" xmlns="http://www.w3.org/2000/svg" viewBox="0 0 382.81 500"><defs><style>.cls-1{fill:#ff4160;}</style></defs><title>skull</title><path class="cls-1" d="M256.84,0h-15C140.21,0,58.59,75.42,58.59,168.14v95.77c0,31.39,19.53,59.53,50.78,69v60.46C109.37,453.17,217.8,500,237.91,500h22.82c20.11,0,129.89-46.83,129.89-106.62V332.92c31.25-9.47,50.78-37.62,50.78-69V168.14C441.41,75.42,358.43,0,256.84,0Zm-7.52,269.48c17.32,0,26.84,44.17,26.84,58.81,0,14-8.05,15.92-15.93,15.92-1.55,0-3.22-.07-5-.14-3.74-.15-8.12-.15-11.85,0-1.76.08-3.43.14-5,.14-3.75,0-8-.35-11.24-3s-4.7-6.73-4.7-12.95C222.48,313.65,232,269.48,249.32,269.48ZM139.61,218.87a38.74,38.74,0,0,1,27.49-14l17.24-1.18c23-1.52,41,10.32,41,26.34,0,15.33-15.4,35.17-35.07,45.18l-15,7.6a34.6,34.6,0,0,1-15.74,4.05c-14.59,0-25.27-10.6-27.24-27L131,248.48A38.73,38.73,0,0,1,139.61,218.87ZM365.32,344.72l-37.2,12.62V379c0,.55-.44,1.11-.55,1.63-.87,18.8-17.73,29.58-45.88,29.58H215.74c-22,0-43.86-10.76-43.86-31.21V357.34l-37.8-12.62a7.88,7.88,0,0,1-5-9.89,7.75,7.75,0,0,1,9.84-4.92L182,344.32a8,8,0,0,1,5.5,7.42V379c0,4.67,2.81,8.11,7.11,10.56a8.22,8.22,0,0,1,8.11-6.71c4.31,0,8.22,3.5,8.22,7.81v3.5c0,.24,3,.42,4.8.42h10.82v-3.92a7.81,7.81,0,0,1,15.62,0v3.92h15.63v-3.92a7.81,7.81,0,0,1,15.62,0v3.92h8.25c2,0,3.47-.13,7.38-.32v-3.6a7.52,7.52,0,0,1,7.46-7.81,7.65,7.65,0,0,1,7.62,7.58c4.46-2.33,7.92-5.91,7.92-11.43,0-.48.43-.94.43-1.4V351.74a7.48,7.48,0,0,1,4.93-7.41l42.72-14.41a7.89,7.89,0,0,1,10,4.91A7.74,7.74,0,0,1,365.32,344.72Zm7.11-96.25-1.37,11.43c-2,16.4-12.65,27-27.23,27a34.75,34.75,0,0,1-15.75-4l-15-7.61c-19.66-10-35.07-29.84-35.07-45.17,0-16,18.05-27.85,41-26.34l17.25,1.18a38.74,38.74,0,0,1,36.09,43.55Z" transform="translate(-58.59)"/></svg>