<?xml version="1.0" encoding="utf-8"?>
<!-- Generator: Adobe Illustrator 23.0.1, SVG Export Plug-In . SVG Version: 6.00 Build 0)  -->
<svg version="1.1" id="Layer_1" xmlns="http://www.w3.org/2000/svg" xmlns:xlink="http://www.w3.org/1999/xlink" x="0px" y="0px"
	 viewBox="0 0 148.7 167" style="enable-background:new 0 0 148.7 167;" xml:space="preserve">
<style type="text/css">
	.st0{fill:#5590FF;}
</style>
<title>Asset 2</title>
<g>
	<g id="Layer_1-2">
		<path class="st0" d="M134,103.2h-7.2c-8.1,0-9.6-4.2-9.7-13.7V77.4c0-9.5,1.6-13.7,9.6-13.7h7.2c11.2,0,18.3-12.1,12.8-21.8
			c0-0.1-0.1-0.1-0.1-0.2l-0.1-0.2c-5.6-9.6-19.7-9.5-25.2,0.2l-3.6,6.2c-4,7-9,4.9-16.9,0.1l-10.1-6c-7.9-4.7-11.3-6.8-7.3-13.9
			l3.6-6.2C92.6,12.3,85.8,0,74.6,0h-0.5c-8.1,0.1-14.6,6.6-14.5,14.7c0,2.6,0.7,5.1,2,7.3l3.6,6.2c4,7,0.7,9.1-7.2,13.9l-10.1,6
			C40,52.8,35,55,31,48l-3.6-6.2c-4-7-13-9.4-19.9-5.4c-2.2,1.3-4,3.1-5.3,5.3L1.9,42c-5.5,9.7,1.7,21.7,12.8,21.7h7.2
			c8.1,0,9.6,4.2,9.6,13.7v12.1c0,9.5-1.5,13.7-9.6,13.7h-7.2c-11.2,0-18.3,12.1-12.8,21.8l0.1,0.2c0,0.1,0.1,0.1,0.1,0.2
			c5.6,9.6,19.6,9.5,25.2-0.2l3.5-6.2c4-7,9-4.9,16.9-0.1L58,125c7.9,4.7,11.3,6.9,7.3,13.8l-3.5,6.2c-5.6,9.7,1.3,21.9,12.4,22h0.5
			c8.1-0.1,14.6-6.7,14.5-14.7c0-2.5-0.7-5-2-7.3l-3.6-6.2c-4-7-0.7-9.1,7.2-13.9l10.1-6c7.9-4.8,12.9-6.9,16.9,0.1l3.6,6.2
			c4,7,12.9,9.4,19.9,5.4c2.2-1.3,4-3.1,5.3-5.3l0.2-0.4C152.4,115.2,145.2,103.2,134,103.2z M99.6,70.9l-32.8,35.1
			c-1.5,1.6-4.2,0-4.1-2.4l0.7-13.2c0-1.1-0.6-2.2-1.5-2.7l-11.8-6.2c-2.1-1.1-2.1-4.3,0-4.7l47-10.3
			C99.4,66.1,101.2,69.2,99.6,70.9z"/>
		<rect x="48.5" y="58.5" class="st0" width="58.1" height="48.2"/>
	</g>
</g>
</svg>
