<svg xmlns="http://www.w3.org/2000/svg" viewBox="0 0 148.74 166.96"><defs><style>.cls-1{fill:#fff;}</style></defs><title>Asset 1</title><g id="Layer_2" data-name="Layer 2"><g id="Layer_1-2" data-name="Layer 1"><path class="cls-1" d="M134,103.21h-7.18c-8.08,0-9.64-4.25-9.66-13.73V77.41c0-9.48,1.55-13.74,9.63-13.74H134c11.17,0,18.32-12.08,12.76-21.75a2.53,2.53,0,0,1-.13-.22l-.12-.21c-5.62-9.65-19.65-9.47-25.23.2l-3.59,6.22c-4,7-9,4.86-16.89.12L90.72,42c-7.92-4.74-11.31-6.85-7.28-13.85L87,21.93C92.6,12.27,85.75,0,74.6,0h-.47a14.61,14.61,0,0,0-12.5,22l3.59,6.21c4,7,.67,9.11-7.25,13.86l-10.07,6C40,52.81,35,55,31,48l-3.58-6.21a14.61,14.61,0,0,0-25.26-.13L1.91,42c-5.53,9.69,1.66,21.73,12.81,21.72H21.9c8.08,0,9.64,4.25,9.65,13.73V89.54c0,9.48-1.55,13.74-9.63,13.74H14.75C3.59,103.29-3.57,115.37,2,125.05l.12.21a2.39,2.39,0,0,0,.12.22c5.61,9.64,19.64,9.47,25.22-.2L31,119.05c4-7,9-4.86,16.9-.12L58,125c7.92,4.73,11.3,6.85,7.27,13.84L61.72,145C56.15,154.69,63,166.92,74.15,167h.48a14.62,14.62,0,0,0,12.49-22l-3.59-6.2c-4-7-.67-9.11,7.25-13.86l10.07-6c7.92-4.75,12.86-6.89,16.91.1l3.59,6.21a14.6,14.6,0,0,0,25.25.13l.24-.41C152.37,115.24,145.18,103.2,134,103.21ZM99.61,70.94,66.78,106.07c-1.48,1.58-4.23,0-4.1-2.38l.72-13.25a3,3,0,0,0-1.55-2.72L50.09,81.57c-2.09-1.09-2.06-4.27,0-4.73l47-10.29C99.38,66.05,101.19,69.24,99.61,70.94Z"/></g></g></svg>