<svg id="Layer_1" data-name="Layer 1" xmlns="http://www.w3.org/2000/svg" viewBox="0 0 300 300"><defs><style>.cls-1{fill:#3deaa8;}</style></defs><title>recovered</title><path class="cls-1" d="M225.22,250.59a15.32,15.32,0,0,0,15.08-18.25,92.13,92.13,0,0,0-180.6,0,15.32,15.32,0,0,0,15.08,18.25Z"/><circle class="cls-1" cx="150" cy="96.55" r="47.14"/><path class="cls-1" d="M300,42.3v6.1a7,7,0,0,1-7,7h-28v28a7,7,0,0,1-7,7H252a7,7,0,0,1-7-7V55.39H217a7,7,0,0,1-7-7V42.3a7,7,0,0,1,7-7H245v-28a7,7,0,0,1,7-7h6.09a7,7,0,0,1,7,7v28h28A7,7,0,0,1,300,42.3Z"/></svg>